<svg width="24" height="24" viewBox="0 0 24 24" fill="none" xmlns="http://www.w3.org/2000/svg">
<path fill-rule="evenodd" clip-rule="evenodd" d="M11.5 8C8.54545 8 6.02227 9.83773 5 12.4318C6.02227 15.0259 8.54545 16.8636 11.5 16.8636C14.4545 16.8636 16.9777 15.0259 18 12.4318C16.9777 9.83773 14.4545 8 11.5 8ZM11.5 15.3864C9.86909 15.3864 8.54545 14.0627 8.54545 12.4318C8.54545 10.8009 9.86909 9.47727 11.5 9.47727C13.1309 9.47727 14.4545 10.8009 14.4545 12.4318C14.4545 14.0627 13.1309 15.3864 11.5 15.3864ZM11.5 10.6591C10.5191 10.6591 9.72727 11.4509 9.72727 12.4318C9.72727 13.4127 10.5191 14.2045 11.5 14.2045C12.4809 14.2045 13.2727 13.4127 13.2727 12.4318C13.2727 11.4509 12.4809 10.6591 11.5 10.6591Z" fill="#555555"/>
</svg>
