<svg width="24" height="24" viewBox="0 0 24 24" fill="none" xmlns="http://www.w3.org/2000/svg">
<path fill-rule="evenodd" clip-rule="evenodd" d="M15.7799 8.02139C16.3377 9.63229 15.8132 11.4197 14.4734 12.4737C16.7651 13.3832 18.3677 15.4833 18.6401 17.9337C18.6791 18.2978 18.4172 18.6252 18.0534 18.6671H17.9801C17.6387 18.6691 17.3509 18.413 17.3134 18.0737C17.0103 15.3756 14.7285 13.3358 12.0134 13.3358C9.29825 13.3358 7.01648 15.3756 6.71339 18.0737C6.67289 18.4419 6.34158 18.7076 5.97339 18.6671C5.6052 18.6266 5.33956 18.2953 5.38006 17.9271C5.65113 15.4838 7.24479 13.388 9.52672 12.4737C8.18696 11.4197 7.66246 9.63229 8.2202 8.02139C8.77794 6.41049 10.2953 5.33008 12.0001 5.33008C13.7048 5.33008 15.2222 6.41049 15.7799 8.02139ZM9.33339 9.33374C9.33339 10.8065 10.5273 12.0004 12.0001 12.0004C12.7073 12.0004 13.3856 11.7195 13.8857 11.2194C14.3858 10.7193 14.6667 10.041 14.6667 9.33374C14.6667 7.86098 13.4728 6.66708 12.0001 6.66708C10.5273 6.66708 9.33339 7.86098 9.33339 9.33374Z" fill="#555555"/>
</svg>
