<svg width="17" height="16" viewBox="0 0 17 16" fill="none" xmlns="http://www.w3.org/2000/svg">
<path d="M8.5 15.7734L7.28906 14.6797C5.90885 13.4297 4.90625 12.5052 4.28125 11.9062C3.65625 11.3073 2.95312 10.5651 2.17188 9.67969C1.41667 8.79427 0.895833 8 0.609375 7.29688C0.322917 6.56771 0.179688 5.82552 0.179688 5.07031C0.179688 3.79427 0.609375 2.71354 1.46875 1.82812C2.35417 0.942708 3.44792 0.5 4.75 0.5C6.26042 0.5 7.51042 1.08594 8.5 2.25781C9.48958 1.08594 10.7396 0.5 12.25 0.5C13.5521 0.5 14.6328 0.942708 15.4922 1.82812C16.3776 2.71354 16.8203 3.79427 16.8203 5.07031C16.8203 6.08594 16.4818 7.14062 15.8047 8.23438C15.1276 9.32812 14.3854 10.2786 13.5781 11.0859C12.7969 11.8932 11.5078 13.1042 9.71094 14.7188L8.5 15.7734Z" fill="#3F51B5"/>
</svg>
