<svg width="18" height="16" viewBox="0 0 18 16" fill="none" xmlns="http://www.w3.org/2000/svg">
<path d="M9.5 4.67969H10.75V8.19531L13.6797 9.95312L13.0547 10.9688L9.5 8.82031V4.67969ZM5.00781 2.6875C6.49219 1.22917 8.26302 0.5 10.3203 0.5C12.3776 0.5 14.1354 1.22917 15.5938 2.6875C17.0781 4.14583 17.8203 5.91667 17.8203 8C17.8203 10.0833 17.0781 11.8542 15.5938 13.3125C14.1354 14.7708 12.3776 15.5 10.3203 15.5C9.46094 15.5 8.51042 15.2917 7.46875 14.875C6.45312 14.4323 5.64583 13.9115 5.04688 13.3125L6.21875 12.1016C7.36458 13.2474 8.73177 13.8203 10.3203 13.8203C11.9349 13.8203 13.3151 13.2604 14.4609 12.1406C15.6068 10.9948 16.1797 9.61458 16.1797 8C16.1797 6.38542 15.6068 5.01823 14.4609 3.89844C13.3151 2.7526 11.9349 2.17969 10.3203 2.17969C8.70573 2.17969 7.32552 2.7526 6.17969 3.89844C5.0599 5.01823 4.5 6.38542 4.5 8H7L3.64062 11.3594L3.5625 11.2422L0.320312 8H2.82031C2.82031 5.91667 3.54948 4.14583 5.00781 2.6875Z" fill="black" fill-opacity="0.6"/>
</svg>
