<svg width="36" height="36" viewBox="0 0 36 36" fill="none" xmlns="http://www.w3.org/2000/svg">
<rect width="36" height="36" rx="18" fill="#3F51B5"/>
<path d="M12.7031 21.1406C14.5469 20.3906 16.3125 20.0156 18 20.0156C19.6875 20.0156 21.4375 20.3906 23.25 21.1406C25.0938 21.8594 26.0156 22.8125 26.0156 24V26.0156H9.98438V24C9.98438 22.8125 10.8906 21.8594 12.7031 21.1406ZM20.8125 16.8281C20.0312 17.6094 19.0938 18 18 18C16.9062 18 15.9688 17.6094 15.1875 16.8281C14.4062 16.0469 14.0156 15.1094 14.0156 14.0156C14.0156 12.9219 14.4062 11.9844 15.1875 11.2031C15.9688 10.3906 16.9062 9.98438 18 9.98438C19.0938 9.98438 20.0312 10.3906 20.8125 11.2031C21.5938 11.9844 21.9844 12.9219 21.9844 14.0156C21.9844 15.1094 21.5938 16.0469 20.8125 16.8281Z" fill="white"/>
</svg>
