<svg width="13" height="18" viewBox="0 0 13 18" fill="none" xmlns="http://www.w3.org/2000/svg">
<path d="M5.01562 7.98438C5.43229 8.375 5.92708 8.57031 6.5 8.57031C7.07292 8.57031 7.55469 8.375 7.94531 7.98438C8.36198 7.56771 8.57031 7.07292 8.57031 6.5C8.57031 5.92708 8.36198 5.44531 7.94531 5.05469C7.55469 4.63802 7.07292 4.42969 6.5 4.42969C5.92708 4.42969 5.43229 4.63802 5.01562 5.05469C4.625 5.44531 4.42969 5.92708 4.42969 6.5C4.42969 7.07292 4.625 7.56771 5.01562 7.98438ZM2.35938 2.39844C3.50521 1.2526 4.88542 0.679688 6.5 0.679688C8.11458 0.679688 9.48177 1.2526 10.6016 2.39844C11.7474 3.51823 12.3203 4.88542 12.3203 6.5C12.3203 7.30729 12.112 8.23177 11.6953 9.27344C11.3047 10.3151 10.8229 11.2917 10.25 12.2031C9.67708 13.1146 9.10417 13.974 8.53125 14.7812C7.98438 15.5625 7.51562 16.1875 7.125 16.6562L6.5 17.3203C6.34375 17.138 6.13542 16.9036 5.875 16.6172C5.61458 16.3047 5.14583 15.7057 4.46875 14.8203C3.79167 13.9089 3.19271 13.0365 2.67188 12.2031C2.17708 11.3438 1.72135 10.3802 1.30469 9.3125C0.888021 8.24479 0.679688 7.30729 0.679688 6.5C0.679688 4.88542 1.23958 3.51823 2.35938 2.39844Z" fill="#757575"/>
</svg>
